<svg xmlns="http://www.w3.org/2000/svg" viewBox="0 0 1040 318" width="1040" height="318" font-family="'Segoe UI','Helvetica Neue',Arial,sans-serif" role="img" aria-label="The practice bar on the game&#x27;s progress bar, in the song and on the Riff Repeater screen"><defs><linearGradient id="nbn-bg" x1="0" y1="0" x2="0" y2="1"><stop offset="0" stop-color="#1d1a30"/><stop offset="1" stop-color="#09090f"/></linearGradient></defs><rect width="1040" height="318" rx="10" fill="url(#nbn-bg)"/><text x="24" y="35.6" font-size="16" font-weight="700" fill="#ffffff" textLength="84.8" lengthAdjust="spacingAndGlyphs">In&#160;the&#160;song</text><rect x="114" y="58" width="812" height="54" rx="4" fill="#000" opacity="0.55"/><rect x="121" y="82.8" width="31.3" height="11.2" rx="1" fill="#b017d6"/><rect x="154.3" y="82.8" width="31.3" height="11.2" rx="1" fill="#b017d6"/><rect x="187.7" y="78" width="31.3" height="16" rx="1" fill="#b017d6"/><rect x="221" y="78" width="31.3" height="16" rx="1" fill="#b017d6"/><rect x="254.3" y="74.8" width="31.3" height="19.2" rx="1" fill="#b017d6"/><rect x="287.7" y="74.8" width="31.3" height="19.2" rx="1" fill="#b017d6"/><rect x="321" y="71.6" width="31.3" height="22.4" rx="1" fill="#b017d6"/><rect x="354.3" y="71.6" width="31.3" height="22.4" rx="1" fill="#4a2466"/><rect x="387.7" y="76.4" width="31.3" height="17.6" rx="1" fill="#4a2466"/><rect x="421" y="65.2" width="31.3" height="28.8" rx="1" fill="#4a2466"/><rect x="454.3" y="65.2" width="31.3" height="28.8" rx="1" fill="#4a2466"/><rect x="487.7" y="74.8" width="31.3" height="19.2" rx="1" fill="#4a2466"/><rect x="521" y="74.8" width="31.3" height="19.2" rx="1" fill="#4a2466"/><rect x="554.3" y="71.6" width="31.3" height="22.4" rx="1" fill="#4a2466"/><rect x="587.7" y="71.6" width="31.3" height="22.4" rx="1" fill="#4a2466"/><rect x="621" y="63.6" width="31.3" height="30.4" rx="1" fill="#4a2466"/><rect x="654.3" y="68.4" width="31.3" height="25.6" rx="1" fill="#4a2466"/><rect x="687.7" y="74.8" width="31.3" height="19.2" rx="1" fill="#4a2466"/><rect x="721" y="74.8" width="31.3" height="19.2" rx="1" fill="#4a2466"/><rect x="754.3" y="78" width="31.3" height="16" rx="1" fill="#4a2466"/><rect x="787.7" y="71.6" width="31.3" height="22.4" rx="1" fill="#4a2466"/><rect x="821" y="71.6" width="31.3" height="22.4" rx="1" fill="#4a2466"/><rect x="854.3" y="79.6" width="31.3" height="14.4" rx="1" fill="#4a2466"/><rect x="887.7" y="82.8" width="31.3" height="11.2" rx="1" fill="#4a2466"/><rect x="120" y="96" width="800" height="8" rx="4" fill="#0e0e14" opacity="0.75"/><rect x="420" y="96" width="33.3" height="8" rx="0" fill="#e13c32" opacity="0.95"/><rect x="453.3" y="96" width="33.3" height="8" rx="0" fill="#e13c32" opacity="0.6"/><rect x="620" y="96" width="33.3" height="8" rx="0" fill="#e13c32" opacity="0.75"/><line x1="153.3" y1="98" x2="153.3" y2="102" stroke="#afafb9" stroke-width="1" opacity="0.5" stroke-linecap="round"/><line x1="186.7" y1="98" x2="186.7" y2="102" stroke="#afafb9" stroke-width="1" opacity="0.5" stroke-linecap="round"/><line x1="220" y1="98" x2="220" y2="102" stroke="#afafb9" stroke-width="1" opacity="0.5" stroke-linecap="round"/><line x1="253.3" y1="98" x2="253.3" y2="102" stroke="#afafb9" stroke-width="1" opacity="0.5" stroke-linecap="round"/><line x1="286.7" y1="98" x2="286.7" y2="102" stroke="#afafb9" stroke-width="1" opacity="0.5" stroke-linecap="round"/><line x1="320" y1="98" x2="320" y2="102" stroke="#afafb9" stroke-width="1" opacity="0.5" stroke-linecap="round"/><line x1="353.3" y1="98" x2="353.3" y2="102" stroke="#afafb9" stroke-width="1" opacity="0.5" stroke-linecap="round"/><line x1="386.7" y1="98" x2="386.7" y2="102" stroke="#afafb9" stroke-width="1" opacity="0.5" stroke-linecap="round"/><line x1="420" y1="98" x2="420" y2="102" stroke="#afafb9" stroke-width="1" opacity="0.5" stroke-linecap="round"/><line x1="453.3" y1="98" x2="453.3" y2="102" stroke="#afafb9" stroke-width="1" opacity="0.5" stroke-linecap="round"/><line x1="486.7" y1="98" x2="486.7" y2="102" stroke="#afafb9" stroke-width="1" opacity="0.5" stroke-linecap="round"/><line x1="520" y1="98" x2="520" y2="102" stroke="#afafb9" stroke-width="1" opacity="0.5" stroke-linecap="round"/><line x1="553.3" y1="98" x2="553.3" y2="102" stroke="#afafb9" stroke-width="1" opacity="0.5" stroke-linecap="round"/><line x1="586.7" y1="98" x2="586.7" y2="102" stroke="#afafb9" stroke-width="1" opacity="0.5" stroke-linecap="round"/><line x1="620" y1="98" x2="620" y2="102" stroke="#afafb9" stroke-width="1" opacity="0.5" stroke-linecap="round"/><line x1="653.3" y1="98" x2="653.3" y2="102" stroke="#afafb9" stroke-width="1" opacity="0.5" stroke-linecap="round"/><line x1="686.7" y1="98" x2="686.7" y2="102" stroke="#afafb9" stroke-width="1" opacity="0.5" stroke-linecap="round"/><line x1="720" y1="98" x2="720" y2="102" stroke="#afafb9" stroke-width="1" opacity="0.5" stroke-linecap="round"/><line x1="753.3" y1="98" x2="753.3" y2="102" stroke="#afafb9" stroke-width="1" opacity="0.5" stroke-linecap="round"/><line x1="786.7" y1="98" x2="786.7" y2="102" stroke="#afafb9" stroke-width="1" opacity="0.5" stroke-linecap="round"/><line x1="820" y1="98" x2="820" y2="102" stroke="#afafb9" stroke-width="1" opacity="0.5" stroke-linecap="round"/><line x1="853.3" y1="98" x2="853.3" y2="102" stroke="#afafb9" stroke-width="1" opacity="0.5" stroke-linecap="round"/><line x1="886.7" y1="98" x2="886.7" y2="102" stroke="#afafb9" stroke-width="1" opacity="0.5" stroke-linecap="round"/><rect x="120" y="96" width="240" height="8" rx="4" fill="#fff" opacity="0.2"/><line x1="360" y1="93" x2="360" y2="107" stroke="#fff" stroke-width="2" stroke-linecap="round"/><rect x="420" y="62" width="66.7" height="46" rx="3" fill="#ffce54" opacity="0.27"/><rect x="420" y="62" width="66.7" height="46" rx="3" fill="none" stroke="#ffce54" stroke-width="2"/><rect x="417" y="58" width="6" height="54" rx="2" fill="#ffce54"/><line x1="420" y1="62" x2="420" y2="108" stroke="#0e0e14" stroke-width="1.2" stroke-linecap="round"/><rect x="483.7" y="58" width="6" height="54" rx="2" fill="#ffce54"/><line x1="486.7" y1="62" x2="486.7" y2="108" stroke="#0e0e14" stroke-width="1.2" stroke-linecap="round"/><polygon points="461.3,84 461.3,102 473.3,97" fill="#fff" stroke="#000" stroke-width="1.5" stroke-linejoin="round"/><text x="731" y="134.7" font-size="13.5" font-weight="400" fill="#ffce54" textLength="189" lengthAdjust="spacingAndGlyphs">practising&#160;Chorus&#160;1&#160;(1:16&#160;-&#160;1:31)</text><line x1="236.7" y1="34" x2="236.7" y2="74" stroke="#ffce54" stroke-width="1.5" opacity="0.9" stroke-linecap="round"/><circle cx="236.7" cy="74" r="2.6" fill="#ffce54"/><circle cx="236.7" cy="34" r="11" fill="#ffce54" stroke="#141418" stroke-width="1.5"/><text x="232.9" y="38.5" font-size="13" font-weight="700" fill="#141418">1</text><line x1="453.3" y1="34" x2="453.3" y2="60" stroke="#ffce54" stroke-width="1.5" opacity="0.9" stroke-linecap="round"/><circle cx="453.3" cy="60" r="2.6" fill="#ffce54"/><circle cx="453.3" cy="34" r="11" fill="#ffce54" stroke="#141418" stroke-width="1.5"/><text x="449.6" y="38.5" font-size="13" font-weight="700" fill="#141418">3</text><line x1="516.7" y1="34" x2="490.7" y2="56" stroke="#ffce54" stroke-width="1.5" opacity="0.9" stroke-linecap="round"/><circle cx="490.7" cy="56" r="2.6" fill="#ffce54"/><circle cx="516.7" cy="34" r="11" fill="#ffce54" stroke="#141418" stroke-width="1.5"/><text x="512.9" y="38.5" font-size="13" font-weight="700" fill="#141418">4</text><line x1="636.7" y1="34" x2="636.7" y2="100" stroke="#ffce54" stroke-width="1.5" opacity="0.9" stroke-linecap="round"/><circle cx="636.7" cy="100" r="2.6" fill="#ffce54"/><circle cx="636.7" cy="34" r="11" fill="#ffce54" stroke="#141418" stroke-width="1.5"/><text x="632.9" y="38.5" font-size="13" font-weight="700" fill="#141418">2</text><circle cx="942" cy="130" r="11" fill="#ffce54" stroke="#141418" stroke-width="1.5"/><text x="938.2" y="134.6" font-size="13" font-weight="700" fill="#141418">5</text><text x="24" y="195.6" font-size="16" font-weight="700" fill="#ffffff" textLength="353.4" lengthAdjust="spacingAndGlyphs">On&#160;the&#160;game&#x27;s&#160;pause&#160;and&#160;Riff&#160;Repeater&#160;screens</text><rect x="114" y="218" width="812" height="54" rx="4" fill="#000" opacity="0.55"/><rect x="121" y="242.8" width="31.3" height="11.2" rx="1" fill="#b017d6"/><rect x="154.3" y="242.8" width="31.3" height="11.2" rx="1" fill="#b017d6"/><rect x="187.7" y="238" width="31.3" height="16" rx="1" fill="#b017d6"/><rect x="221" y="238" width="31.3" height="16" rx="1" fill="#b017d6"/><rect x="254.3" y="234.8" width="31.3" height="19.2" rx="1" fill="#b017d6"/><rect x="287.7" y="234.8" width="31.3" height="19.2" rx="1" fill="#b017d6"/><rect x="321" y="231.6" width="31.3" height="22.4" rx="1" fill="#b017d6"/><rect x="354.3" y="231.6" width="31.3" height="22.4" rx="1" fill="#4a2466"/><rect x="387.7" y="236.4" width="31.3" height="17.6" rx="1" fill="#4a2466"/><rect x="421" y="225.2" width="31.3" height="28.8" rx="1" fill="#4a2466"/><rect x="454.3" y="225.2" width="31.3" height="28.8" rx="1" fill="#4a2466"/><rect x="487.7" y="234.8" width="31.3" height="19.2" rx="1" fill="#4a2466"/><rect x="521" y="234.8" width="31.3" height="19.2" rx="1" fill="#4a2466"/><rect x="554.3" y="231.6" width="31.3" height="22.4" rx="1" fill="#4a2466"/><rect x="587.7" y="231.6" width="31.3" height="22.4" rx="1" fill="#4a2466"/><rect x="621" y="223.6" width="31.3" height="30.4" rx="1" fill="#4a2466"/><rect x="654.3" y="228.4" width="31.3" height="25.6" rx="1" fill="#4a2466"/><rect x="687.7" y="234.8" width="31.3" height="19.2" rx="1" fill="#4a2466"/><rect x="721" y="234.8" width="31.3" height="19.2" rx="1" fill="#4a2466"/><rect x="754.3" y="238" width="31.3" height="16" rx="1" fill="#4a2466"/><rect x="787.7" y="231.6" width="31.3" height="22.4" rx="1" fill="#4a2466"/><rect x="821" y="231.6" width="31.3" height="22.4" rx="1" fill="#4a2466"/><rect x="854.3" y="239.6" width="31.3" height="14.4" rx="1" fill="#4a2466"/><rect x="887.7" y="242.8" width="31.3" height="11.2" rx="1" fill="#4a2466"/><rect x="120" y="256" width="800" height="8" rx="4" fill="#0e0e14" opacity="0.75"/><rect x="420" y="256" width="33.3" height="8" rx="0" fill="#e13c32" opacity="0.95"/><rect x="453.3" y="256" width="33.3" height="8" rx="0" fill="#e13c32" opacity="0.6"/><rect x="620" y="256" width="33.3" height="8" rx="0" fill="#e13c32" opacity="0.75"/><line x1="153.3" y1="258" x2="153.3" y2="262" stroke="#afafb9" stroke-width="1" opacity="0.5" stroke-linecap="round"/><line x1="186.7" y1="258" x2="186.7" y2="262" stroke="#afafb9" stroke-width="1" opacity="0.5" stroke-linecap="round"/><line x1="220" y1="258" x2="220" y2="262" stroke="#afafb9" stroke-width="1" opacity="0.5" stroke-linecap="round"/><line x1="253.3" y1="258" x2="253.3" y2="262" stroke="#afafb9" stroke-width="1" opacity="0.5" stroke-linecap="round"/><line x1="286.7" y1="258" x2="286.7" y2="262" stroke="#afafb9" stroke-width="1" opacity="0.5" stroke-linecap="round"/><line x1="320" y1="258" x2="320" y2="262" stroke="#afafb9" stroke-width="1" opacity="0.5" stroke-linecap="round"/><line x1="353.3" y1="258" x2="353.3" y2="262" stroke="#afafb9" stroke-width="1" opacity="0.5" stroke-linecap="round"/><line x1="386.7" y1="258" x2="386.7" y2="262" stroke="#afafb9" stroke-width="1" opacity="0.5" stroke-linecap="round"/><line x1="420" y1="258" x2="420" y2="262" stroke="#afafb9" stroke-width="1" opacity="0.5" stroke-linecap="round"/><line x1="453.3" y1="258" x2="453.3" y2="262" stroke="#afafb9" stroke-width="1" opacity="0.5" stroke-linecap="round"/><line x1="486.7" y1="258" x2="486.7" y2="262" stroke="#afafb9" stroke-width="1" opacity="0.5" stroke-linecap="round"/><line x1="520" y1="258" x2="520" y2="262" stroke="#afafb9" stroke-width="1" opacity="0.5" stroke-linecap="round"/><line x1="553.3" y1="258" x2="553.3" y2="262" stroke="#afafb9" stroke-width="1" opacity="0.5" stroke-linecap="round"/><line x1="586.7" y1="258" x2="586.7" y2="262" stroke="#afafb9" stroke-width="1" opacity="0.5" stroke-linecap="round"/><line x1="620" y1="258" x2="620" y2="262" stroke="#afafb9" stroke-width="1" opacity="0.5" stroke-linecap="round"/><line x1="653.3" y1="258" x2="653.3" y2="262" stroke="#afafb9" stroke-width="1" opacity="0.5" stroke-linecap="round"/><line x1="686.7" y1="258" x2="686.7" y2="262" stroke="#afafb9" stroke-width="1" opacity="0.5" stroke-linecap="round"/><line x1="720" y1="258" x2="720" y2="262" stroke="#afafb9" stroke-width="1" opacity="0.5" stroke-linecap="round"/><line x1="753.3" y1="258" x2="753.3" y2="262" stroke="#afafb9" stroke-width="1" opacity="0.5" stroke-linecap="round"/><line x1="786.7" y1="258" x2="786.7" y2="262" stroke="#afafb9" stroke-width="1" opacity="0.5" stroke-linecap="round"/><line x1="820" y1="258" x2="820" y2="262" stroke="#afafb9" stroke-width="1" opacity="0.5" stroke-linecap="round"/><line x1="853.3" y1="258" x2="853.3" y2="262" stroke="#afafb9" stroke-width="1" opacity="0.5" stroke-linecap="round"/><line x1="886.7" y1="258" x2="886.7" y2="262" stroke="#afafb9" stroke-width="1" opacity="0.5" stroke-linecap="round"/><rect x="120" y="256" width="240" height="8" rx="4" fill="#fff" opacity="0.2"/><line x1="360" y1="253" x2="360" y2="267" stroke="#fff" stroke-width="2" stroke-linecap="round"/><path d="M392.7 216 H386.7 V274 H392.7" fill="none" stroke="#e6e6ee" stroke-width="2.5"/><path d="M514 216 H520 V274 H514" fill="none" stroke="#e6e6ee" stroke-width="2.5"/><rect x="420" y="222" width="66.7" height="46" rx="3" fill="#ffce54" opacity="0.27"/><rect x="420" y="222" width="66.7" height="46" rx="3" fill="none" stroke="#ffce54" stroke-width="2"/><rect x="417" y="218" width="6" height="54" rx="2" fill="#ffce54"/><line x1="420" y1="222" x2="420" y2="268" stroke="#0e0e14" stroke-width="1.2" stroke-linecap="round"/><rect x="483.7" y="218" width="6" height="54" rx="2" fill="#ffce54"/><line x1="486.7" y1="222" x2="486.7" y2="268" stroke="#0e0e14" stroke-width="1.2" stroke-linecap="round"/><text x="474.8" y="294.7" font-size="13.5" font-weight="400" fill="#ffce54" textLength="445.2" lengthAdjust="spacingAndGlyphs">Note-by-Note:&#160;practising&#160;Chorus&#160;1&#160;(1:16&#160;-&#160;1:31)&#160;&#160;&#160;·&#160;&#160;&#160;click&#160;a&#160;part&#160;to&#160;remove&#160;it</text><line x1="554" y1="196" x2="523" y2="218" stroke="#ffce54" stroke-width="1.5" opacity="0.9" stroke-linecap="round"/><circle cx="523" cy="218" r="2.6" fill="#ffce54"/><circle cx="554" cy="196" r="11" fill="#ffce54" stroke="#141418" stroke-width="1.5"/><text x="550.2" y="200.6" font-size="13" font-weight="700" fill="#141418">6</text></svg>
