<svg xmlns="http://www.w3.org/2000/svg" viewBox="0 0 1040 300" width="1040" height="300" font-family="'Segoe UI','Helvetica Neue',Arial,sans-serif" role="img" aria-label="After a wrong note: the banner stays as it is, and a red panel beside it says how to fix it"><defs><linearGradient id="nbn-bg" x1="0" y1="0" x2="0" y2="1"><stop offset="0" stop-color="#1d1a30"/><stop offset="1" stop-color="#09090f"/></linearGradient></defs><rect width="1040" height="300" rx="10" fill="url(#nbn-bg)"/><rect x="24" y="24" width="620" height="252" rx="14" fill="#0e0e14" fill-opacity="0.92" stroke="#3484f2" stroke-width="2.5"/><text x="60" y="77.1" font-size="26" font-weight="700" fill="#ffffff" textLength="171.6" lengthAdjust="spacingAndGlyphs">Play&#160;fret&#160;5&#160;on&#160;</text><text x="231.6" y="77.1" font-size="26" font-weight="700" fill="#3484f2" textLength="139.4" lengthAdjust="spacingAndGlyphs">string&#160;4&#160;(D)</text><g transform="translate(60,168)"><text x="0" y="5.2" font-size="15" font-weight="400" fill="#afafb9" textLength="32.7" lengthAdjust="spacingAndGlyphs">Then</text></g><g transform="translate(114.7,168)"><rect x="0" y="-15" width="30" height="30" rx="7" fill="#3484f2"/><text x="10.2" y="5.8" font-size="16.5" font-weight="700" fill="#fff">7</text><text x="10.9" y="28.9" font-size="11" font-weight="700" fill="#3484f2">D</text></g><g transform="translate(154.7,168)"><text x="0" y="7" font-size="20" font-weight="400" fill="#afafb9">›</text></g><g transform="translate(171.1,168)"><rect x="0" y="-15" width="30" height="30" rx="7" fill="#f68822"/><text x="10.2" y="5.8" font-size="16.5" font-weight="700" fill="#141418">5</text><text x="11.1" y="28.9" font-size="11" font-weight="700" fill="#f68822">G</text></g><g transform="translate(211.1,168)"><text x="0" y="7" font-size="20" font-weight="400" fill="#afafb9">›</text></g><g transform="translate(227.5,168)"><rect x="0" y="-15" width="30" height="30" rx="7" fill="#f68822"/><text x="10.2" y="5.8" font-size="16.5" font-weight="700" fill="#141418">7</text><text x="11.1" y="28.9" font-size="11" font-weight="700" fill="#f68822">G</text></g><text x="60" y="248.9" font-size="14" font-weight="400" fill="#afafb9" textLength="134.1" lengthAdjust="spacingAndGlyphs">F9&#160;=&#160;skip&#160;&#160;&#160;F8&#160;=&#160;menu</text><rect x="392.4" y="103.2" width="220.8" height="102.4" rx="3.2" fill="#000" opacity="0.45"/><rect x="429.2" y="103.2" width="147.2" height="102.4" rx="2.4" fill="#fff" opacity="0.1"/><line x1="429.2" y1="103.2" x2="429.2" y2="205.6" stroke="#afafb9" stroke-width="1.3" opacity="0.5" stroke-linecap="round"/><line x1="466" y1="103.2" x2="466" y2="205.6" stroke="#afafb9" stroke-width="1.3" opacity="0.5" stroke-linecap="round"/><circle cx="484.4" cy="154.4" r="3.6" fill="#fff" opacity=".15"/><line x1="502.8" y1="103.2" x2="502.8" y2="205.6" stroke="#afafb9" stroke-width="1.3" opacity="0.5" stroke-linecap="round"/><line x1="539.6" y1="103.2" x2="539.6" y2="205.6" stroke="#afafb9" stroke-width="1.3" opacity="0.5" stroke-linecap="round"/><circle cx="558" cy="154.4" r="3.6" fill="#fff" opacity=".15"/><line x1="576.4" y1="103.2" x2="576.4" y2="205.6" stroke="#afafb9" stroke-width="1.3" opacity="0.5" stroke-linecap="round"/><line x1="613.2" y1="103.2" x2="613.2" y2="205.6" stroke="#afafb9" stroke-width="1.3" opacity="0.5" stroke-linecap="round"/><line x1="392.4" y1="103.2" x2="392.4" y2="205.6" stroke="#ffffff" stroke-width="4" opacity="0.85" stroke-linecap="round"/><line x1="379.2" y1="110.4" x2="613.2" y2="110.4" stroke="#e83434" stroke-width="2.8" opacity="0.45" stroke-linecap="round"/><text x="345.8" y="114.3" font-size="11.2" font-weight="400" fill="#e83434" opacity="0.55" textLength="14.8" lengthAdjust="spacingAndGlyphs">6&#160;E</text><line x1="379.2" y1="128" x2="613.2" y2="128" stroke="#f0ce28" stroke-width="2.5" opacity="0.45" stroke-linecap="round"/><text x="345" y="131.9" font-size="11.2" font-weight="400" fill="#f0ce28" opacity="0.55" textLength="16.4" lengthAdjust="spacingAndGlyphs">5&#160;A</text><line x1="379.2" y1="145.6" x2="613.2" y2="145.6" stroke="#3484f2" stroke-width="2.1" stroke-linecap="round"/><text x="344.7" y="149.5" font-size="11.2" font-weight="400" fill="#3484f2" textLength="16.9" lengthAdjust="spacingAndGlyphs">4&#160;D</text><line x1="379.2" y1="163.2" x2="613.2" y2="163.2" stroke="#f68822" stroke-width="1.8" opacity="0.45" stroke-linecap="round"/><text x="344.8" y="167.1" font-size="11.2" font-weight="400" fill="#f68822" opacity="0.55" textLength="16.8" lengthAdjust="spacingAndGlyphs">3&#160;G</text><line x1="379.2" y1="180.8" x2="613.2" y2="180.8" stroke="#3ec44e" stroke-width="1.4" opacity="0.45" stroke-linecap="round"/><text x="345.5" y="184.7" font-size="11.2" font-weight="400" fill="#3ec44e" opacity="0.55" textLength="15.5" lengthAdjust="spacingAndGlyphs">2&#160;B</text><line x1="379.2" y1="198.4" x2="613.2" y2="198.4" stroke="#b658e4" stroke-width="1" opacity="0.45" stroke-linecap="round"/><text x="345.8" y="202.3" font-size="11.2" font-weight="400" fill="#b658e4" opacity="0.55" textLength="14.9" lengthAdjust="spacingAndGlyphs">1&#160;e</text><text x="407.6" y="220.2" font-size="12" font-weight="400" fill="#afafb9" opacity="0.75">1</text><text x="444.4" y="220.2" font-size="12" font-weight="400" fill="#afafb9" opacity="0.75">2</text><text x="481.2" y="220.2" font-size="12" font-weight="400" fill="#afafb9" opacity="0.75">3</text><text x="518" y="220.2" font-size="12" font-weight="400" fill="#afafb9" opacity="0.75">4</text><text x="554.5" y="220.2" font-size="12" font-weight="700" fill="#ffffff">5</text><text x="591.6" y="220.2" font-size="12" font-weight="400" fill="#afafb9" opacity="0.75">6</text><circle cx="558" cy="145.6" r="13.6" fill="#3484f2" opacity=".27"/><circle cx="558" cy="145.6" r="11.2" fill="#3484f2"/><text x="553.9" y="150.5" font-size="14" font-weight="700" fill="#fff">5</text><g opacity="1"><circle cx="549.9" cy="153.7" r="5.8" fill="#f5f5f5" stroke="#141418" stroke-width="1"/><text x="547.5" y="156.6" font-size="8.4" font-weight="700" fill="#141418">4</text></g><rect x="525.2" y="136.8" width="17.6" height="17.6" rx="4.8" fill="#0e0e14" stroke="#3484f2" stroke-width="1.2800000000000002"/><text x="530" y="149.5" font-size="11.2" font-weight="700" fill="#3484f2">G</text><rect x="660" y="24" width="356" height="252" rx="14" fill="#0e0e14" fill-opacity="0.92" stroke="#ff6e5a" stroke-width="2.5"/><text x="682" y="65.3" font-size="21" font-weight="700" fill="#ff6e5a" textLength="149.5" lengthAdjust="spacingAndGlyphs">!&#160;&#160;You&#160;played&#160;A</text><text x="682" y="95.4" font-size="15.5" font-weight="400" fill="#ffffff" textLength="222" lengthAdjust="spacingAndGlyphs">move&#160;DOWN&#160;2&#160;frets,&#160;to&#160;fret&#160;5&#160;on</text><text x="682" y="117.4" font-size="15.5" font-weight="400" fill="#3484f2" textLength="75.8" lengthAdjust="spacingAndGlyphs">string&#160;4&#160;(D)</text><rect x="740.3" y="136.7" width="204.2" height="94.7" rx="3" fill="#000" opacity="0.45"/><circle cx="757.3" cy="184" r="3.3" fill="#fff" opacity=".15"/><line x1="774.4" y1="136.7" x2="774.4" y2="231.4" stroke="#afafb9" stroke-width="1.2" opacity="0.5" stroke-linecap="round"/><line x1="808.4" y1="136.7" x2="808.4" y2="231.4" stroke="#afafb9" stroke-width="1.2" opacity="0.5" stroke-linecap="round"/><circle cx="825.4" cy="184" r="3.3" fill="#fff" opacity=".15"/><line x1="842.4" y1="136.7" x2="842.4" y2="231.4" stroke="#afafb9" stroke-width="1.2" opacity="0.5" stroke-linecap="round"/><line x1="876.5" y1="136.7" x2="876.5" y2="231.4" stroke="#afafb9" stroke-width="1.2" opacity="0.5" stroke-linecap="round"/><circle cx="893.5" cy="184" r="3.3" fill="#fff" opacity=".15"/><line x1="910.5" y1="136.7" x2="910.5" y2="231.4" stroke="#afafb9" stroke-width="1.2" opacity="0.5" stroke-linecap="round"/><line x1="944.6" y1="136.7" x2="944.6" y2="231.4" stroke="#afafb9" stroke-width="1.2" opacity="0.5" stroke-linecap="round"/><line x1="740.3" y1="136.7" x2="740.3" y2="231.4" stroke="#afafb9" stroke-width="1.2" opacity="0.35" stroke-linecap="round"/><line x1="728.1" y1="143.3" x2="944.6" y2="143.3" stroke="#e83434" stroke-width="2.6" opacity="0.45" stroke-linecap="round"/><text x="697.2" y="146.9" font-size="10.4" font-weight="400" fill="#e83434" opacity="0.55" textLength="13.7" lengthAdjust="spacingAndGlyphs">6&#160;E</text><line x1="728.1" y1="159.6" x2="944.6" y2="159.6" stroke="#f0ce28" stroke-width="2.3" opacity="0.45" stroke-linecap="round"/><text x="696.5" y="163.2" font-size="10.4" font-weight="400" fill="#f0ce28" opacity="0.55" textLength="15.1" lengthAdjust="spacingAndGlyphs">5&#160;A</text><line x1="728.1" y1="175.9" x2="944.6" y2="175.9" stroke="#3484f2" stroke-width="2" stroke-linecap="round"/><text x="696.2" y="179.5" font-size="10.4" font-weight="400" fill="#3484f2" textLength="15.6" lengthAdjust="spacingAndGlyphs">4&#160;D</text><line x1="728.1" y1="192.2" x2="944.6" y2="192.2" stroke="#f68822" stroke-width="1.6" opacity="0.45" stroke-linecap="round"/><text x="696.3" y="195.8" font-size="10.4" font-weight="400" fill="#f68822" opacity="0.55" textLength="15.5" lengthAdjust="spacingAndGlyphs">3&#160;G</text><line x1="728.1" y1="208.4" x2="944.6" y2="208.4" stroke="#3ec44e" stroke-width="1.3" opacity="0.45" stroke-linecap="round"/><text x="696.9" y="212.1" font-size="10.4" font-weight="400" fill="#3ec44e" opacity="0.55" textLength="14.3" lengthAdjust="spacingAndGlyphs">2&#160;B</text><line x1="728.1" y1="224.7" x2="944.6" y2="224.7" stroke="#b658e4" stroke-width="1" opacity="0.45" stroke-linecap="round"/><text x="697.2" y="228.3" font-size="10.4" font-weight="400" fill="#b658e4" opacity="0.55" textLength="13.8" lengthAdjust="spacingAndGlyphs">1&#160;e</text><text x="754.3" y="244.9" font-size="11.1" font-weight="400" fill="#afafb9" opacity="0.75">3</text><text x="788.4" y="244.9" font-size="11.1" font-weight="400" fill="#afafb9" opacity="0.75">4</text><text x="822.2" y="244.9" font-size="11.1" font-weight="700" fill="#ffffff">5</text><text x="856.5" y="244.9" font-size="11.1" font-weight="400" fill="#afafb9" opacity="0.75">6</text><text x="890.5" y="244.9" font-size="11.1" font-weight="400" fill="#afafb9" opacity="0.75">7</text><text x="924.5" y="244.9" font-size="11.1" font-weight="400" fill="#afafb9" opacity="0.75">8</text><path d="M882.3 175.9 Q859.5 175.9 845.4 175.9" fill="none" stroke="#0e0e14" stroke-width="4.4" stroke-linecap="round" opacity=".9"/><polygon points="839,175.9 845.4,172 845.4,179.7" fill="#0e0e14" stroke="#0e0e14" stroke-width="2.4" stroke-linejoin="round"/><path d="M882.3 175.9 Q859.5 175.9 845.4 175.9" fill="none" stroke="#fff" stroke-width="1.8" stroke-linecap="round"/><polygon points="839,175.9 845.4,172 845.4,179.7" fill="#fff"/><circle cx="893.5" cy="175.9" r="8.8" fill="#0e0e14" stroke="#ff6e5a" stroke-width="1.6"/><line x1="889.5" y1="171.9" x2="897.5" y2="179.8" stroke="#ff6e5a" stroke-width="1.9" stroke-linecap="round"/><line x1="889.5" y1="179.8" x2="897.5" y2="171.9" stroke="#ff6e5a" stroke-width="1.9" stroke-linecap="round"/><rect x="906" y="167.7" width="16.3" height="16.3" rx="4.4" fill="#0e0e14" stroke="#ff6e5a" stroke-width="1.184"/><text x="910.5" y="179.5" font-size="10.4" font-weight="700" fill="#ff6e5a">A</text><circle cx="825.4" cy="175.9" r="12.6" fill="#3484f2" opacity=".27"/><circle cx="825.4" cy="175.9" r="10.4" fill="#3484f2"/><text x="821.7" y="180.4" font-size="12.9" font-weight="700" fill="#fff">5</text><rect x="795.1" y="167.7" width="16.3" height="16.3" rx="4.4" fill="#0e0e14" stroke="#3484f2" stroke-width="1.184"/><text x="799.5" y="179.5" font-size="10.4" font-weight="700" fill="#3484f2">G</text><circle cx="40" cy="68" r="11" fill="#ffce54" stroke="#141418" stroke-width="1.5"/><text x="36.2" y="72.5" font-size="13" font-weight="700" fill="#141418">1</text><circle cx="992" cy="58" r="11" fill="#ffce54" stroke="#141418" stroke-width="1.5"/><text x="988.2" y="62.5" font-size="13" font-weight="700" fill="#141418">2</text><circle cx="992" cy="100" r="11" fill="#ffce54" stroke="#141418" stroke-width="1.5"/><text x="988.2" y="104.5" font-size="13" font-weight="700" fill="#141418">3</text><line x1="955.5" y1="141.9" x2="901.5" y2="166.9" stroke="#ffce54" stroke-width="1.5" opacity="0.9" stroke-linecap="round"/><circle cx="901.5" cy="166.9" r="2.6" fill="#ffce54"/><circle cx="955.5" cy="141.9" r="11" fill="#ffce54" stroke="#141418" stroke-width="1.5"/><text x="951.7" y="146.4" font-size="13" font-weight="700" fill="#141418">4</text></svg>
